# xmcd CD database file
#
# Track frame offsets:
#	150
#	24432
#	37010
#	51057
#	78635
#	92542
#	110372
#	127212
#	140927
#	161277
#
# Disc length: 2411 seconds
#
# Revision: 1
# Processed by: cddbd v1.5.2PL0 Copyright (c) Steve Scherf et al.
# Submitted via: jetAudio 5
#
DISCID=8409690a
DTITLE=Stevie Ray Vaughan and Double Trouble - Soul to Soul
DYEAR=1900
DGENRE=
TTITLE0=Say What!
TTITLE1=Lookin' out the Window
TTITLE2=Look at Little Sister
TTITLE3=Ain't Gone 'n' Give up on Love
TTITLE4=Gone Home
TTITLE5=Change It
TTITLE6=You'll Be Mine
TTITLE7=Empty Arms
TTITLE8=Come On (part III)
TTITLE9=Life Without You
EXTD=
EXTT0=
EXTT1=
EXTT2=
EXTT3=
EXTT4=
EXTT5=
EXTT6=
EXTT7=
EXTT8=
EXTT9=
PLAYORDER=
